<svg id="图层_1" data-name="图层 1" xmlns="http://www.w3.org/2000/svg" viewBox="0 0 708.73 289.55"><defs><style>.cls-1,.cls-2{fill:none;stroke:#231815;stroke-miterlimit:10;}.cls-1{stroke-width:0.5px;}.cls-2{stroke-width:0.25px;}.cls-3{writing-mode:tb;text-orientation:upright;glyph-orientation-vertical:0deg;fill:#231815;}.cls-3,.cls-4{font-size:12px;font-family:MicrosoftYaHei, Microsoft YaHei;}.cls-4{fill:#1d2088;}</style></defs><line class="cls-1" y1="186.6" x2="675.13" y2="186.6"/><rect class="cls-2" x="142.38" y="108.45" width="18.96" height="62.64"/><text class="cls-3" transform="translate(151.86 127.76)">玄奘</text><rect class="cls-2" x="412.46" y="108.45" width="18.96" height="62.64"/><text class="cls-3" transform="translate(421.94 115.76)">妖魔鬼怪</text><rect class="cls-2" x="161.97" y="55.75" width="57.96" height="62.64"/><text class="cls-3" transform="translate(204.04 63.06)">唐皇御弟<tspan x="-14.4" y="0">大唐高僧</tspan><tspan x="-28.8" y="0">取经团队</tspan></text><rect class="cls-2" x="525.43" y="108.45" width="18.96" height="62.64"/><text class="cls-3" transform="translate(534.91 115.76)">西域诸国</text><rect class="cls-2" x="300.74" y="108.45" width="18.96" height="62.64"/><text class="cls-3" transform="translate(310.22 109.76)">大唐国境线</text><rect class="cls-2" x="627.57" y="108.45" width="18.96" height="62.64"/><text class="cls-3" transform="translate(637.06 127.76)">灵山</text><rect class="cls-2" x="77.99" y="108.45" width="18.96" height="62.64"/><text class="cls-3" transform="translate(87.47 121.76)">孙悟空</text><text class="cls-4" transform="translate(624.73 63.18)">投资回报如何？<tspan x="0" y="14.4">是否值得去做？</tspan></text><text class="cls-4" transform="translate(283.31 214.48)">为了实现最终目标，<tspan x="0" y="14.4">第一年从哪里入手？</tspan><tspan x="0" y="28.8">要启动哪些项目？</tspan><tspan x="0" y="43.2">哪些是关键计划？</tspan><tspan x="0" y="57.6">我们最关注的业务基础数据是哪几个？</tspan><tspan x="0" y="72">如何衡量我们的业绩？</tspan></text><text class="cls-4" transform="translate(158.09 10.29)">实现这些目标的成功要素有哪些?<tspan x="0" y="14.4">有哪些因素会影响我们达成目标？</tspan></text><text class="cls-4" transform="translate(408.96 48.78)">有哪些关键的制约因素, <tspan x="0" y="14.4">会影响我们的解决方案？</tspan><tspan x="0" y="28.8">我们如何解决这些问题？</tspan></text><line class="cls-2" x1="187.93" y1="55.03" x2="210.13" y2="32.83"/><line class="cls-2" x1="423.94" y1="107.83" x2="446.14" y2="85.63"/><line class="cls-2" x1="287.53" y1="195.43" x2="309.73" y2="173.23"/><text class="cls-4" transform="translate(516.31 214.48)">我们在未来3～5年<tspan x="0" y="14.4">的目标是什么？</tspan></text><line class="cls-2" x1="520.53" y1="195.43" x2="542.73" y2="173.23"/><text class="cls-4" transform="translate(59.35 214.48)">我们如何保证战略得以实施？<tspan x="0" y="14.4">换言之, </tspan><tspan x="0" y="28.8">有哪些问题出现的可能性比较大？</tspan><tspan x="0" y="43.2">应对计划是什么？</tspan></text><line class="cls-2" x1="63.57" y1="195.43" x2="85.77" y2="173.23"/><line class="cls-2" x1="640.33" y1="107.83" x2="662.53" y2="85.63"/><path class="cls-1" d="M348,288.39s12.95-.81,19.43-8.9,13,3.23,18.62,4.85,15.38,4.86,15.38,4.86" transform="translate(-9.47 -120.17)"/><path class="cls-1" d="M386.29,284.81s5.55-.35,8.32-3.82,5.55,1.39,8,2.08,6.59,2.08,6.59,2.08" transform="translate(-9.47 -120.17)"/><path class="cls-1" d="M460.28,288.39s13-.81,19.43-8.9,13,3.23,18.62,4.85,15.38,4.86,15.38,4.86" transform="translate(-9.47 -120.17)"/><path class="cls-1" d="M498.6,284.81s5.55-.35,8.32-3.82,5.55,1.39,8,2.08,6.58,2.08,6.58,2.08" transform="translate(-9.47 -120.17)"/></svg>