<svg xmlns="http://www.w3.org/2000/svg" viewBox="0 0 251.7 263.69"><defs><style>.cls-1,.cls-2,.cls-4{fill:none;}.cls-1,.cls-2,.cls-3,.cls-4{stroke:#231815;stroke-miterlimit:10;}.cls-2,.cls-4{stroke-width:0.82px;}.cls-3{fill:#fff;}.cls-4{stroke-dasharray:1.99 1.99;}.cls-5{font-size:12px;fill:#231815;font-family:MicrosoftYaHeiLight, Microsoft YaHei;}</style></defs><g id="图层_2" data-name="图层 2"><g id="图层_1-2" data-name="图层 1"><polyline class="cls-1" points="0.5 17.83 0.5 121.83 251.7 121.83"/><path class="cls-2" d="M31.1,106.83c5.62,1.45,49.12,11.93,87.6-16.8,43.73-32.66,41.06-86.16,40.8-90"/><circle class="cls-3" cx="131.25" cy="77.79" r="4.2"/><polyline class="cls-1" points="0.5 159.19 0.5 263.19 251.7 263.19"/><path class="cls-2" d="M31.1,248.19l1,.24"/><path class="cls-4" d="M34,248.87c11.64,2.52,50.19,8.29,84.7-17.48,40-29.9,41.18-77.28,40.89-88"/><path class="cls-2" d="M159.55,142.38c0-.46,0-.79-.05-1"/><circle class="cls-3" cx="40.7" cy="249.39" r="4.2"/><text class="cls-5" transform="translate(146.86 80.54)">西方: 工业革命</text><text class="cls-5" transform="translate(28.72 98.2)">之前的积累</text><text class="cls-5" transform="translate(6.55 235.95)">中国: 从源头掐死</text></g></g></svg>