<svg height="1143" width="1051" viewBox="0 0 1051 1143" xmlns:xlink="http://www.w3.org/1999/xlink" xmlns="http://www.w3.org/2000/svg">
    <defs/>
    <g transform="translate(-41.26,-235.50)">
        <g id="shape1" transform="translate(409.76,246.00)">
            <path stroke="#999999" d="M.0,.0L70.7,.0L70.7,35.1L.0,35.1L.0,.0z" fill="none"/>
            <text style="fill:#191919;font-family:Microsoft YaHei;font-size:10.00pt" xml:space="preserve">
                <tspan y="23.1" x="15.9">袁世凯</tspan>
            </text>
        </g>
        <g id="shape2" transform="translate(667.13,236.50)">
            <path fill-rule="nonzero" d="M.0,.0L98.7,.0L98.7,54.1L.0,54.1L.0,.0z" stroke="#999999" fill="#d8d8d8"/>
            <text style="fill:#191919;font-family:Microsoft YaHei;font-size:10.00pt" xml:space="preserve">
                <tspan y="23.5" x="10.9">"权威性不够"</tspan>
                <tspan y="42.5" x="36.4">问题</tspan>
            </text>
        </g>
        <g id="shape3" transform="translate(480.50,263.01)">
            <path stroke="#191919" d="M.0,.0L154.6,.0L154.6,-0.0L180.6,-0.0" fill="none"/>
            <path stroke-width="1" stroke="#191919" d="M180.6,-3.0L186.6,-0.0L180.6,3.0L180.6,-3.0" fill="#191919" stroke-linecap="round"/>
            <rect height="19.0" width="116.0" y="-9.5" fill="#ffffff" x="34.3"/>
            <text style="fill:#191919;font-family:Microsoft YaHei;font-size:10.00pt" xml:space="preserve">
                <tspan y="5.5" x="34.3">想通过"称帝"来解决</tspan>
            </text>
        </g>
        <g id="shape4" transform="translate(395.50,350.50)">
            <path stroke="#999999" d="M.0,.0L70.7,.0L70.7,54.1L.0,54.1L.0,.0z" fill="none"/>
            <text style="fill:#191919;font-family:Microsoft YaHei;font-size:10.00pt" xml:space="preserve">
                <tspan y="23.1" x="15.9">段祺瑞</tspan>
                <tspan y="42.1" x="18.4">(总理)</tspan>
            </text>
        </g>
        <g id="shape5" transform="translate(648.13,351.80)">
            <path fill-rule="nonzero" d="M.0,.0L98.7,.0L98.7,54.1L.0,54.1L.0,.0z" stroke="#999999" fill="#d8d8d8"/>
            <text style="fill:#191919;font-family:Microsoft YaHei;font-size:10.00pt" xml:space="preserve">
                <tspan y="23.5" x="23.4">民国政体</tspan>
                <tspan y="42.5" x="36.4">问题</tspan>
            </text>
        </g>
        <g id="shape6" transform="translate(466.24,381.31)">
            <path stroke="#191919" d="M.0,.0L175.9,.0" fill="none"/>
            <path stroke-width="1" stroke="#191919" d="M175.9,-3.0L181.9,.0L175.9,3.0L175.9,-3.0" fill="#191919" stroke-linecap="round"/>
            <rect height="19.0" width="110.0" y="-28.5" fill="#ffffff" x="40.8"/>
            <rect height="19.0" width="105.0" y="-9.5" fill="#ffffff" x="43.3"/>
            <rect height="19.0" width="98.0" y="9.5" fill="#ffffff" x="46.8"/>
            <text style="fill:#191919;font-family:Microsoft YaHei;font-size:10.00pt" xml:space="preserve">
                <tspan y="-13.5" x="40.8">希望执行"内阁制”</tspan>
                <tspan y="5.5" x="43.3">即: 总统是虚位的, </tspan>
                <tspan y="24.5" x="46.8">总理是有实权的. </tspan>
            </text>
        </g>
        <g id="shape7" transform="translate(891.76,353.75)">
            <path stroke="#999999" d="M.0,.0L70.7,.0L70.7,54.1L.0,54.1L.0,.0z" fill="none"/>
            <text style="fill:#191919;font-family:Microsoft YaHei;font-size:10.00pt" xml:space="preserve">
                <tspan y="23.1" x="15.9">黎元洪</tspan>
                <tspan y="42.1" x="18.4">(总统)</tspan>
            </text>
        </g>
        <g id="shape8" transform="translate(891.76,375.30)">
            <path stroke="#191919" d="M.0,.0L-138.9,.0" fill="none"/>
            <path stroke-width="1" stroke="#191919" d="M-138.9,3.0L-144.9,.0L-138.9,-3.0L-138.9,3.0" fill="#191919" stroke-linecap="round"/>
            <rect height="19.0" width="113.0" y="-19.0" fill="#ffffff" x="-119.3"/>
            <rect height="19.0" width="91.0" y="0.0" fill="#ffffff" x="-108.3"/>
            <text style="fill:#191919;font-family:Microsoft YaHei;font-size:10.00pt" xml:space="preserve">
                <tspan y="-4.0" x="-119.3">希望执行"总体制”,</tspan>
                <tspan y="15.0" x="-108.3">即总统握有实权</tspan>
            </text>
        </g>
        <g id="shape9" transform="translate(546.50,452.15)">
            <path stroke="#191919" d="M.0,.0L284.0,.0L284.0,-32.0" fill="none"/>
            <path stroke-width="1" stroke="#191919" d="M281.0,-32.0L284.0,-38.0L287.0,-32.0L281.0,-32.0" fill="#191919" stroke-linecap="round"/>
            <rect height="19.0" width="155.0" y="-9.5" fill="#ffffff" x="62.8"/>
            <text style="fill:#191919;font-family:Microsoft YaHei;font-size:10.00pt" xml:space="preserve">
                <tspan y="5.5" x="62.8">府院之争 (总统府和国务院)</tspan>
            </text>
        </g>
        <g id="shape10" transform="translate(546.50,452.15)">
            <path stroke="#191919" d="M.0,.0L.0,-32.0" fill="none"/>
            <path stroke-width="1" stroke="#191919" d="M-3.0,-32.0L.0,-38.0L3.0,-32.0L-3.0,-32.0" fill="#191919" stroke-linecap="round"/>
        </g>
        <g id="shape11" transform="translate(613.74,739.15)">
            <path fill-rule="nonzero" d="M.0,.0L130.5,.0L130.5,73.1L.0,73.1L.0,.0z" stroke="#999999" fill="#d8d8d8"/>
            <text style="fill:#191919;font-family:Microsoft YaHei;font-size:10.00pt" xml:space="preserve">
                <tspan y="23.5" x="26.3">一次世界大战</tspan>
                <tspan y="42.5" x="24.3">(欧洲招募华工</tspan>
                <tspan y="61.5" x="24.3">作为后勤问题)</tspan>
            </text>
        </g>
        <g id="shape12" transform="translate(613.74,645.15)">
            <path fill-rule="nonzero" d="M.0,.0L130.5,.0L130.5,54.1L.0,54.1L.0,.0z" stroke="#999999" fill="#d7d7d7"/>
            <text style="fill:#191919;font-family:Microsoft YaHei;font-size:10.00pt" xml:space="preserve">
                <tspan y="23.5" x="33.8">1.欧洲列强</tspan>
                <tspan y="42.5" x="15.8">(要说服中国参战)</tspan>
            </text>
        </g>
        <g id="shape13" transform="translate(679.26,699.30)">
            <path stroke="#191919" d="M.0,.0L-0.0,33.9" fill="none"/>
            <path stroke-width="1" stroke="#191919" d="M3.0,33.9L-0.0,39.9L-3.0,33.9L3.0,33.9" fill="#191919" stroke-linecap="round"/>
        </g>
        <g id="shape14" transform="translate(400.89,748.65)">
            <path stroke="#999999" d="M.0,.0L70.7,.0L70.7,54.1L.0,54.1L.0,.0z" fill="none"/>
            <text style="fill:#191919;font-family:Microsoft YaHei;font-size:10.00pt" xml:space="preserve">
                <tspan y="23.1" x="15.9">段祺瑞</tspan>
                <tspan y="42.1" x="18.4">(总理)</tspan>
            </text>
        </g>
        <g id="shape15" transform="translate(613.74,672.17)">
            <path stroke="#191919" d="M.0,.0L-170.6,.0L-170.6,70.5" fill="none"/>
            <path stroke-width="1" stroke="#191919" d="M-167.6,70.5L-170.6,76.5L-173.6,70.5L-167.6,70.5" fill="#191919" stroke-linecap="round"/>
        </g>
        <g id="shape16" transform="translate(850.00,748.65)">
            <path stroke="#999999" d="M.0,.0L70.7,.0L70.7,54.1L.0,54.1L.0,.0z" fill="none"/>
            <text style="fill:#191919;font-family:Microsoft YaHei;font-size:10.00pt" xml:space="preserve">
                <tspan y="23.1" x="15.9">黎元洪</tspan>
                <tspan y="42.1" x="18.4">(总统)</tspan>
            </text>
        </g>
        <g id="shape17" transform="translate(471.63,774.15)">
            <path stroke="#191919" d="M.0,.0L110.1,.0L110.1,-0.0L136.1,-0.0" fill="none"/>
            <path stroke-width="1" stroke="#191919" d="M136.1,-3.0L142.1,-0.0L136.1,3.0L136.1,-3.0" fill="#191919" stroke-linecap="round"/>
            <rect height="19.0" width="63.0" y="-9.5" fill="#ffffff" x="43.0"/>
            <text style="fill:#191919;font-family:Microsoft YaHei;font-size:10.00pt" xml:space="preserve">
                <tspan y="5.5" x="43.0">2.打算同意</tspan>
            </text>
        </g>
        <g id="shape18" transform="translate(850.00,775.13)">
            <path stroke="#191919" d="M.0,.0L-73.7,.0L-73.7,.0L-99.7,.0" fill="none"/>
            <path stroke-width="1" stroke="#191919" d="M-99.7,3.0L-105.7,.0L-99.7,-3.0L-99.7,3.0" fill="#191919" stroke-linecap="round"/>
            <rect height="19.0" width="37.0" y="-9.5" fill="#ffffff" x="-64.2"/>
            <text style="fill:#191919;font-family:Microsoft YaHei;font-size:10.00pt" xml:space="preserve">
                <tspan y="5.5" x="-64.2">3.拒绝</tspan>
            </text>
        </g>
        <g id="shape19" transform="translate(906.00,645.15)">
            <path fill-rule="nonzero" d="M.0,92.6L.0,.0L185.1,.0L185.1,92.9L51.8,92.9L22.2,119.1L29.6,92.9L.0,92.6z" stroke="#323232" fill="#ffffff"/>
            <text style="fill:#191919;font-family:Microsoft YaHei;font-size:8.00pt" xml:space="preserve">
                <tspan y="16.0" x="4.1">觉得德国不能惹, </tspan>
                <tspan y="32.0" x="4.1">提出中国只需跟德国及奥匈帝国断</tspan>
                <tspan y="48.0" x="4.1">交，保持中立姿态，但不能宣战. </tspan>
                <tspan y="64.0" x="4.1">黎元洪担心打不过德国人，到时候德</tspan>
                <tspan y="80.0" x="4.1">国人卷土重来怎么办?</tspan>
            </text>
        </g>
        <g id="shape20" transform="matrix(-1.00,0.00,0.00,1.00,586.0,529.0)">
            <path fill-rule="nonzero" d="M.0,109.0L.0,.0L185.1,.0L185.1,109.3L51.8,109.3L22.2,140.1L29.6,109.3L.0,109.0z" stroke="#323232" fill="#ffffff"/>
            <text style="fill:#191919;font-family:Microsoft YaHei;font-size:8.00pt" transform="matrix(-1.00,0.00,0.00,1.00,185.1,0.0)" xml:space="preserve">
                <tspan y="16.0" x="4.1">给中国的利益条件:</tspan>
                <tspan y="32.0" x="4.1">1.重新议定关税税率; </tspan>
                <tspan y="48.0" x="4.1">2.取消庚子赔款中, 中国需向同盟国</tspan>
                <tspan y="64.0" x="4.1">偿付的赔款</tspan>
                <tspan y="80.0" x="4.1">3.协约国承诺，只要开战， 中国就不</tspan>
                <tspan y="96.0" x="4.1">必再向德国和奥匈帝国赔款了</tspan>
            </text>
        </g>
        <g id="shape21" transform="translate(887.28,802.80)">
            <path stroke="#191919" d="M.0,.0L.0,66.2L-447.0,66.2L-447.0,6.0" fill="none"/>
            <path stroke-width="1" stroke="#191919" d="M-450.0,6.0L-447.0,.0L-444.0,6.0L-450.0,6.0" fill="#191919" stroke-linecap="round"/>
            <rect height="19.0" width="92.0" y="37.7" fill="#ffffff" x="-254.0"/>
            <rect height="19.0" width="338.0" y="56.7" fill="#ffffff" x="-377.0"/>
            <rect height="19.0" width="234.0" y="75.7" fill="#ffffff" x="-325.0"/>
            <text style="fill:#191919;font-family:Microsoft YaHei;font-size:10.00pt" xml:space="preserve">
                <tspan y="52.7" x="-254.0">4.把段祺瑞免职.</tspan>
                <tspan y="71.7" x="-377.0">其实，按照责任内阁体制的设计，总统是不能罢免总理的，</tspan>
                <tspan y="90.7" x="-325.0">罢免总理只能由国会通过不信任票决议。</tspan>
            </text>
        </g>
        <g id="shape22" transform="translate(613.74,954.00)">
            <path fill-rule="nonzero" d="M.0,.0L130.5,.0L130.5,73.1L.0,73.1L.0,.0z" stroke="#999999" fill="#d8d8d8"/>
            <text style="fill:#191919;font-family:Microsoft YaHei;font-size:10.00pt" xml:space="preserve">
                <tspan y="33.0" x="52.3">调节</tspan>
                <tspan y="52.0" x="26.3">府院之争问题</tspan>
            </text>
        </g>
        <g id="shape23" transform="translate(680.00,897.00)">
            <path stroke="#191919" d="M.0,.0L.0,51.0" fill="none"/>
            <path stroke-width="1" stroke="#191919" d="M3.0,51.0L.0,57.0L-3.0,51.0L3.0,51.0" fill="#191919" stroke-linecap="round"/>
        </g>
        <g id="shape24" transform="translate(326.26,963.50)">
            <path stroke="#999999" d="M.0,.0L70.7,.0L70.7,54.1L.0,54.1L.0,.0z" fill="none"/>
            <text style="fill:#191919;font-family:Microsoft YaHei;font-size:10.00pt" xml:space="preserve">
                <tspan y="33.0" x="22.4">张勋</tspan>
            </text>
        </g>
        <g id="shape25" transform="translate(397.00,990.20)">
            <path stroke="#191919" d="M.0,.0L184.7,.0L184.7,.0L210.7,.0" fill="none"/>
            <path stroke-width="1" stroke="#191919" d="M210.7,-3.0L216.7,.0L210.7,3.0L210.7,-3.0" fill="#191919" stroke-linecap="round"/>
            <rect height="19.0" width="89.0" y="-9.5" fill="#ffffff" x="64.2"/>
            <text style="fill:#191919;font-family:Microsoft YaHei;font-size:10.00pt" xml:space="preserve">
                <tspan y="5.5" x="64.2">5.表示可以调节</tspan>
            </text>
        </g>
        <g id="shape26" transform="translate(850.00,963.50)">
            <path stroke="#999999" d="M.0,.0L70.7,.0L70.7,54.1L.0,54.1L.0,.0z" fill="none"/>
            <text style="fill:#191919;font-family:Microsoft YaHei;font-size:10.00pt" xml:space="preserve">
                <tspan y="23.1" x="15.9">黎元洪</tspan>
                <tspan y="42.1" x="18.4">(总统)</tspan>
            </text>
        </g>
        <g id="shape27" transform="translate(364.60,1017.65)">
            <path stroke="#191919" d="M.0,.0L.0,41.5L501.7,41.5L501.7,6.0" fill="none"/>
            <path stroke-width="1" stroke="#191919" d="M498.7,6.0L501.7,.0L504.7,6.0L498.7,6.0" fill="#191919" stroke-linecap="round"/>
            <rect height="19.0" width="115.0" y="32.0" fill="#ffffff" x="202.9"/>
            <text style="fill:#191919;font-family:Microsoft YaHei;font-size:10.00pt" xml:space="preserve">
                <tspan y="47.0" x="202.9">6.但一进京就闹复辟</tspan>
            </text>
        </g>
        <g id="shape28" transform="translate(400.89,1096.00)">
            <path stroke="#999999" d="M.0,.0L70.7,.0L70.7,54.1L.0,54.1L.0,.0z" fill="none"/>
            <text style="fill:#191919;font-family:Microsoft YaHei;font-size:10.00pt" xml:space="preserve">
                <tspan y="23.1" x="15.9">段祺瑞</tspan>
                <tspan y="42.1" x="18.4">(总理)</tspan>
            </text>
        </g>
        <g id="shape29" transform="translate(897.25,1017.65)">
            <path stroke="#191919" d="M.0,.0L.0,107.1L-419.6,107.1" fill="none"/>
            <path stroke-width="1" stroke="#191919" d="M-419.6,110.1L-425.6,107.1L-419.6,104.1L-419.6,110.1" fill="#191919" stroke-linecap="round"/>
            <rect height="19.0" width="213.0" y="88.1" fill="#ffffff" x="-327.5"/>
            <rect height="19.0" width="120.0" y="107.1" fill="#ffffff" x="-281.0"/>
            <text style="fill:#191919;font-family:Microsoft YaHei;font-size:10.00pt" xml:space="preserve">
                <tspan y="103.1" x="-327.5">7.逃跑, 重新任命段祺瑞为国务总理，</tspan>
                <tspan y="122.1" x="-281.0">并委任他组织讨逆军.</tspan>
            </text>
        </g>
        <g id="shape30" transform="translate(42.26,1172.00)">
            <path stroke="#999999" d="M.0,.0L70.7,.0L70.7,54.1L.0,54.1L.0,.0z" fill="none"/>
            <text style="fill:#191919;font-family:Microsoft YaHei;font-size:10.00pt" xml:space="preserve">
                <tspan y="33.0" x="22.4">日本</tspan>
            </text>
        </g>
        <g id="shape31" transform="translate(205.63,1172.00)">
            <path stroke="#999999" d="M.0,.0L70.7,.0L70.7,54.1L.0,54.1L.0,.0z" fill="none"/>
            <text style="fill:#191919;font-family:Microsoft YaHei;font-size:10.00pt" xml:space="preserve">
                <tspan y="33.0" x="15.9">曹汝霖</tspan>
            </text>
        </g>
        <g id="shape32" transform="translate(435.27,1150.15)">
            <path stroke="#191919" d="M.0,.0L.0,49.6L-152.9,49.6" fill="none"/>
            <path stroke-width="1" stroke="#191919" d="M-152.9,52.6L-158.9,49.6L-152.9,46.6L-152.9,52.6" fill="#191919" stroke-linecap="round"/>
            <rect height="19.0" width="89.0" y="21.1" fill="#ffffff" x="-120.5"/>
            <rect height="19.0" width="65.0" y="40.1" fill="#ffffff" x="-108.5"/>
            <rect height="19.0" width="94.0" y="59.1" fill="#ffffff" x="-123.0"/>
            <text style="fill:#191919;font-family:Microsoft YaHei;font-size:10.00pt" xml:space="preserve">
                <tspan y="36.1" x="-120.5">8.但段祺瑞手里</tspan>
                <tspan y="55.1" x="-108.5">既没有钱，</tspan>
                <tspan y="74.1" x="-123.0">又没有嫡系军队.</tspan>
            </text>
        </g>
        <g id="shape33" transform="translate(205.63,1199.72)">
            <path stroke="#191919" d="M.0,.0L-86.6,.0" fill="none"/>
            <path stroke-width="1" stroke="#191919" d="M-86.6,3.0L-92.6,.0L-86.6,-3.0L-86.6,3.0" fill="#191919" stroke-linecap="round"/>
            <rect height="16.0" width="77.0" y="-16.0" fill="#ffffff" x="-81.9"/>
            <rect height="16.0" width="55.0" y="0.0" fill="#ffffff" x="-70.9"/>
            <text style="fill:#191919;font-family:Microsoft YaHei;font-size:8.00pt" xml:space="preserve">
                <tspan y="-4.0" x="-81.9">向日本三菱公司</tspan>
                <tspan y="12.0" x="-70.9">借了一百万</tspan>
            </text>
        </g>
        <g id="shape34" transform="translate(77.28,1226.15)">
            <path stroke="#191919" d="M.0,.0L.0,39.9L377.0,39.9L377.0,-70.0" fill="none"/>
            <path stroke-width="1" stroke="#191919" d="M374.0,-70.0L377.0,-76.0L380.0,-70.0L374.0,-70.0" fill="#191919" stroke-linecap="round"/>
            <rect height="19.0" width="183.0" y="20.9" fill="#ffffff" x="66.4"/>
            <rect height="19.0" width="104.0" y="39.9" fill="#ffffff" x="105.9"/>
            <text style="fill:#191919;font-family:Microsoft YaHei;font-size:10.00pt" xml:space="preserve">
                <tspan y="35.9" x="66.4">9.借钱给段祺瑞到各方收买军队.</tspan>
                <tspan y="54.9" x="105.9">解决张勋复辟问题</tspan>
            </text>
        </g>
        <g id="shape35" transform="translate(400.89,1313.50)">
            <path stroke="#999999" d="M.0,.0L70.7,.0L70.7,54.1L.0,54.1L.0,.0z" fill="none"/>
            <text style="fill:#191919;font-family:Microsoft YaHei;font-size:10.00pt" xml:space="preserve">
                <tspan y="23.1" x="15.9">段祺瑞</tspan>
                <tspan y="42.1" x="18.4">(总理)</tspan>
            </text>
        </g>
        <g id="shape36" transform="translate(217.00,1294.00)">
            <path stroke="#191919" d="M.0,.0L.0,46.2L177.9,46.2" fill="none"/>
            <path stroke-width="1" stroke="#191919" d="M177.9,43.2L183.9,46.2L177.9,49.2L177.9,43.2" fill="#191919" stroke-linecap="round"/>
        </g>
        <g id="shape37" transform="translate(613.74,1304.00)">
            <path fill-rule="nonzero" d="M.0,.0L130.5,.0L130.5,73.1L.0,73.1L.0,.0z" stroke="#999999" fill="#d7d7d7"/>
            <text style="fill:#191919;font-family:Microsoft YaHei;font-size:10.00pt" xml:space="preserve">
                <tspan y="23.1" x="33.8">1.欧洲列强</tspan>
                <tspan y="42.1" x="30.8">(要说服中国</tspan>
                <tspan y="61.1" x="37.3">参加一战)</tspan>
            </text>
        </g>
        <g id="shape38" transform="translate(471.63,1341.28)">
            <path stroke="#191919" d="M.0,.0L110.1,.0L110.1,.2L136.1,.2" fill="none"/>
            <path stroke-width="1" stroke="#191919" d="M136.1,-2.8L142.1,.2L136.1,3.2L136.1,-2.8" fill="#191919" stroke-linecap="round"/>
            <rect height="19.0" width="45.0" y="-9.5" fill="#ffffff" x="39.2"/>
            <text style="fill:#191919;font-family:Microsoft YaHei;font-size:10.00pt" xml:space="preserve">
                <tspan y="5.5" x="39.2">10.同意</tspan>
            </text>
        </g>
        <g id="shape39" transform="translate(704.00,1257.00)">
            <path fill-rule="nonzero" d="M.0,29.6L.0,.0L146.0,.0L146.0,29.6L40.9,29.6L17.5,38.0L23.4,29.6L.0,29.6z" stroke="#323232" fill="#ffffff"/>
            <text style="fill:#191919;font-family:Microsoft YaHei;font-size:8.00pt" xml:space="preserve">
                <tspan y="16.0" x="4.0">为后来五四运动埋下伏笔</tspan>
            </text>
        </g>
        <g id="shape40" transform="translate(680.00,472.00)">
            <path stroke="#191919" d="M.0,.0L.0,155.0" fill="none"/>
            <path stroke-width="1" stroke="#191919" d="M3.0,155.0L.0,161.0L-3.0,155.0L3.0,155.0" fill="#191919" stroke-linecap="round"/>
        </g>
    </g>
</svg>
