<svg xmlns:xlink="http://www.w3.org/1999/xlink" width="947" height="686" viewBox="0 0 947 686" xmlns="http://www.w3.org/2000/svg">
    <defs/>
    <g transform="translate(-18.00,-79.85)">
        <path stroke-dasharray="6,4" d="M.0,.0L218.0,.0L218.0,365.2L.0,365.2L.0,.0z" transform="translate(746.00,128.32)" fill="none" id="shape1" stroke="#323232"/>
        <path stroke-dasharray="6,4" d="M.0,.0L661.0,.0L661.0,636.4L.0,636.4L.0,.0z" transform="translate(19.00,128.32)" fill="none" id="shape2" stroke="#323232"/>
        <g transform="translate(658.00,80.85)" id="shape3">
            <text style="fill:#191919;font-family:Microsoft YaHei;font-size:10.00pt" xml:space="preserve">
                <tspan y="21.6" x="47.0">美国</tspan>
            </text>
        </g>
        <g transform="translate(389.13,152.00)" id="shape4">
            <path d="M.0,.0L120.0,.0L120.0,56.0L.0,56.0L.0,.0z" fill="#cfe9d8" fill-rule="nonzero"/>
            <text style="fill:#191919;font-family:Microsoft YaHei;font-size:10.00pt;font-weight:bold" xml:space="preserve">
                <tspan y="24.0" x="21.0">终身教职序列</tspan>
                <tspan y="43.0" x="16.5">Tenure Track</tspan>
            </text>
        </g>
        <g transform="translate(259.63,228.50)" id="shape5">
            <text style="fill:#191919;font-family:Microsoft YaHei;font-size:10.00pt" xml:space="preserve">
                <tspan y="19.0" x="4.5">需要兼顾: 教学 Teaching, 科研 Research, 服务 Service 等多方</tspan>
                <tspan y="38.0" x="4.5">职责。</tspan>
                <tspan y="57.0" x="4.5">在晋升身份的同时, 申请"终身教职"，两条晋升路径并行。</tspan>
            </text>
        </g>
        <g transform="translate(262.63,312.50)" id="shape6">
            <path d="M.0,.0L160.7,.0L160.7,73.0L.0,73.0L.0,.0z" fill="none" stroke="#999999"/>
            <text style="fill:#191919;font-family:Microsoft YaHei;font-size:10.00pt" xml:space="preserve">
                <tspan y="23.0" x="67.4">讲师</tspan>
                <tspan y="42.0" x="20.4">Lecture Convertible</tspan>
                <tspan y="61.0" x="43.4">聘期为1-2年</tspan>
            </text>
        </g>
        <g transform="translate(262.63,426.50)" id="shape7">
            <path d="M.0,.0L160.7,.0L160.7,73.0L.0,73.0L.0,.0z" fill="none" stroke="#999999"/>
            <text style="fill:#191919;font-family:Microsoft YaHei;font-size:10.00pt" xml:space="preserve">
                <tspan y="23.0" x="54.4">助理教授</tspan>
                <tspan y="42.0" x="21.9">Assistant Professor</tspan>
                <tspan y="61.0" x="51.9">聘期≤6年</tspan>
            </text>
        </g>
        <g transform="translate(343.32,385.50)" id="shape8">
            <path d="M.0,.0L-0.0,35.0" fill="none" stroke="#191919"/>
            <path d="M3.0,35.0L-0.0,41.0L-3.0,35.0L3.0,35.0" stroke-width="1" fill="#191919" stroke-linecap="round" stroke="#191919"/>
        </g>
        <g transform="translate(262.63,549.50)" id="shape9">
            <path d="M.0,.0L160.7,.0L160.7,73.0L.0,73.0L.0,.0z" fill="#d7d7d7" fill-rule="nonzero" stroke="#999999"/>
            <text style="fill:#191919;font-family:Microsoft YaHei;font-size:10.00pt" xml:space="preserve">
                <tspan y="23.0" x="60.9">副教授</tspan>
                <tspan y="42.0" x="20.4">Associate Professor</tspan>
                <tspan y="61.0" x="37.4">(通常为终身制)</tspan>
            </text>
        </g>
        <g transform="translate(341.23,499.50)" id="shape10">
            <path d="M.0,.0L.0,44.0" fill="none" stroke="#191919"/>
            <path d="M3.0,44.0L.0,50.0L-3.0,44.0L3.0,44.0" stroke-width="1" fill="#191919" stroke-linecap="round" stroke="#191919"/>
        </g>
        <g transform="translate(262.63,662.50)" id="shape11">
            <path d="M.0,.0L160.7,.0L160.7,73.0L.0,73.0L.0,.0z" fill="#d7d7d7" fill-rule="nonzero" stroke="#999999"/>
            <text style="fill:#191919;font-family:Microsoft YaHei;font-size:10.00pt" xml:space="preserve">
                <tspan y="23.0" x="60.9">正教授</tspan>
                <tspan y="42.0" x="38.9">Full Professor</tspan>
                <tspan y="61.0" x="56.9">(终身制)</tspan>
            </text>
        </g>
        <g transform="translate(342.20,622.50)" id="shape12">
            <path d="M.0,.0L.0,34.0" fill="none" stroke="#191919"/>
            <path d="M3.0,34.0L.0,40.0L-3.0,34.0L3.0,34.0" stroke-width="1" fill="#191919" stroke-linecap="round" stroke="#191919"/>
        </g>
        <g transform="translate(480.89,321.00)" id="shape13">
            <path d="M.0,.0L160.7,.0L160.7,406.0L.0,406.0L.0,.0z" fill="none" stroke="#999999"/>
            <text style="fill:#191919;font-family:Microsoft YaHei;font-size:10.00pt" xml:space="preserve">
                <tspan y="123.0" x="27.9">★ 申请"终身教职"</tspan>
                <tspan y="161.0" x="8.9">通常而言，除少数极顶尖</tspan>
                <tspan y="180.0" x="5.9">高校外，北美大学中的"副</tspan>
                <tspan y="199.0" x="6.4">教授"大多为"终身制"，可</tspan>
                <tspan y="218.0" x="8.9">以在其工作岗位上一直工</tspan>
                <tspan y="237.0" x="50.9">作到退休. </tspan>
                <tspan y="256.0" x="8.9">除非学校破产，或教师被</tspan>
                <tspan y="275.0" x="15.4">曝出学术不端等严重丑</tspan>
                <tspan y="294.0" x="8.9">闻，否则不能将其解聘。</tspan>
            </text>
        </g>
        <g transform="translate(423.37,347.85)" id="shape14">
            <path d="M.0,.0L51.5,.0" fill="none" stroke="#191919"/>
            <path d="M51.5,-3.0L57.5,.0L51.5,3.0L51.5,-3.0" stroke-width="1" fill="#191919" stroke-linecap="round" stroke="#191919"/>
        </g>
        <g transform="translate(423.37,464.85)" id="shape15">
            <path d="M.0,.0L51.5,.0" fill="none" stroke="#191919"/>
            <path d="M51.5,-3.0L57.5,.0L51.5,3.0L51.5,-3.0" stroke-width="1" fill="#191919" stroke-linecap="round" stroke="#191919"/>
        </g>
        <g transform="translate(423.37,587.10)" id="shape16">
            <path d="M.0,.0L25.5,.0L25.5,-0.2L51.5,-0.2" fill="none" stroke="#191919"/>
            <path d="M51.5,-3.2L57.5,-0.2L51.5,2.8L51.5,-3.2" stroke-width="1" fill="#191919" stroke-linecap="round" stroke="#191919"/>
        </g>
        <g transform="translate(38.00,309.00)" id="shape17">
            <text style="fill:#191919;font-family:Microsoft YaHei;font-size:10.00pt" xml:space="preserve">
                <tspan y="26.5" x="4.1">聘期结束后, </tspan>
                <tspan y="45.5" x="4.1">如不能升为"助理教授"，</tspan>
                <tspan y="64.5" x="4.1">则学校不再续聘</tspan>
            </text>
        </g>
        <g transform="translate(262.63,354.84)" id="shape18">
            <path d="M.0,.0L-47.1,.0" fill="none" stroke="#191919"/>
            <path d="M-47.1,3.0L-53.1,.0L-47.1,-3.0L-47.1,3.0" stroke-width="1" fill="#191919" stroke-linecap="round" stroke="#191919"/>
        </g>
        <g transform="translate(262.63,464.82)" id="shape19">
            <path d="M.0,.0L-47.1,.0" fill="none" stroke="#191919"/>
            <path d="M-47.1,3.0L-53.1,.0L-47.1,-3.0L-47.1,3.0" stroke-width="1" fill="#191919" stroke-linecap="round" stroke="#191919"/>
        </g>
        <g transform="translate(38.00,411.00)" id="shape20">
            <text style="fill:#191919;font-family:Microsoft YaHei;font-size:10.00pt" xml:space="preserve">
                <tspan y="42.0" x="4.1">聘期结束后, 如未能获得晋</tspan>
                <tspan y="61.0" x="4.1">升至"副教授"，则在1年的</tspan>
                <tspan y="80.0" x="4.1">缓冲期后必须离开学校。</tspan>
            </text>
        </g>
        <g transform="translate(423.37,700.10)" id="shape21">
            <path d="M.0,.0L25.5,.0L25.5,-0.3L51.5,-0.3" fill="none" stroke="#191919"/>
            <path d="M51.5,-3.3L57.5,-0.3L51.5,2.7L51.5,-3.3" stroke-width="1" fill="#191919" stroke-linecap="round" stroke="#191919"/>
        </g>
        <g transform="translate(770.00,152.00)" id="shape22">
            <path d="M.0,.0L170.0,.0L170.0,55.5L.0,55.5L.0,.0z" fill="#fedad0" fill-rule="nonzero"/>
            <text style="fill:#191919;font-family:Microsoft YaHei;font-size:10.00pt;font-weight:bold" xml:space="preserve">
                <tspan y="23.8" x="39.5">非终身教职序列</tspan>
                <tspan y="42.8" x="22.5">Non- Tenure Track</tspan>
            </text>
        </g>
        <g transform="translate(728.00,228.50)" id="shape23">
            <text style="fill:#191919;font-family:Microsoft YaHei;font-size:10.00pt;font-weight:bold" xml:space="preserve">
                <tspan y="32.5" x="59.0">研究序列</tspan>
                <tspan y="51.5" x="34.5">Research Track</tspan>
            </text>
        </g>
        <g transform="translate(758.26,312.50)" id="shape24">
            <text style="fill:#191919;font-family:Microsoft YaHei;font-size:10.00pt" xml:space="preserve">
                <tspan y="19.0" x="4.4">主要从事科研工作，依</tspan>
                <tspan y="38.0" x="4.4">靠"项目经费"养活自</tspan>
                <tspan y="57.0" x="4.4">己。</tspan>
                <tspan y="76.0" x="4.4">因此只要能够拉到经</tspan>
                <tspan y="95.0" x="4.4">费, 就可以留任，不竞</tspan>
                <tspan y="114.0" x="4.4">争终身教职，也无</tspan>
                <tspan y="133.0" x="4.4">需“非升即走”Up or </tspan>
                <tspan y="152.0" x="4.4">Out</tspan>
            </text>
        </g>
        <path d="M28.0,.0C27.9,.0,13.9,2.7,13.9,10.5L13.9,52.0C13.9,52.0,12.1,55.3,8.9,58.1C5.6,60.8,.0,62.3,.0,62.3C.0,62.3,5.9,63.7,8.9,66.2C12.3,69.0,13.9,72.6,13.9,72.6L13.9,116.8C13.9,116.8,16.1,125.0,28.0,125.0" transform="translate(218.00,574.00)" fill="none" id="shape25" stroke="#323232"/>
        <g transform="translate(94.00,599.93)" id="shape26">
            <text style="fill:#191919;font-family:Microsoft YaHei;font-size:10.00pt" xml:space="preserve">
                <tspan y="32.6" x="4.5">安全上岸,</tspan>
                <tspan y="51.6" x="4.5">可做到退休</tspan>
            </text>
        </g>
    </g>
</svg>
