<svg xmlns:xlink="http://www.w3.org/1999/xlink" width="1556" height="951" viewBox="0 0 1556 951" xmlns="http://www.w3.org/2000/svg">
    <defs/>
    <g transform="translate(-153.28,-849.00)">
        <g transform="translate(680.00,850.00)" id="shape1">
            <text style="fill:#191919;font-family:Microsoft YaHei;font-size:10.00pt" xml:space="preserve">
                <tspan y="23.5" x="11.5">“预聘-长聘”制</tspan>
                <tspan y="42.5" x="28.0"> (非升即走)</tspan>
            </text>
        </g>
        <g transform="translate(496.07,1092.00)" id="shape2">
            <path d="M.0,.0L204.7,.0L204.7,80.0L.0,80.0L.0,.0z" fill="#fedad0" fill-rule="nonzero" stroke="#323232"/>
            <text style="fill:#191919;font-family:Microsoft YaHei;font-size:10.00pt" xml:space="preserve">
                <tspan y="26.5" x="89.4">预聘</tspan>
                <tspan y="45.5" x="77.9">=试用期</tspan>
                <tspan y="64.5" x="80.9">(3-6年)</tspan>
            </text>
        </g>
        <g transform="translate(496.07,1605.35)" id="shape3">
            <path d="M.0,.0L204.7,.0L204.7,72.3L.0,72.3L.0,.0z" fill="#cfe9d8" fill-rule="nonzero" stroke="#323232"/>
            <text style="fill:#191919;font-family:Microsoft YaHei;font-size:10.00pt" xml:space="preserve">
                <tspan y="22.6" x="89.4">长聘</tspan>
                <tspan y="41.6" x="39.9">(无固定期限聘用合同)</tspan>
                <tspan y="60.6" x="15.4">相当于终身教职 Tenure Track</tspan>
            </text>
        </g>
        <g transform="translate(496.07,1526.65)" id="shape4">
            <path d="M.0,.0L204.7,.0L204.7,29.0L.0,29.0L.0,.0z" fill="none" stroke="#323232"/>
            <text style="fill:#191919;font-family:Microsoft YaHei;font-size:10.00pt" xml:space="preserve">
                <tspan y="20.0" x="89.4">考核</tspan>
            </text>
        </g>
        <g transform="translate(596.79,1172.00)" id="shape5">
            <path d="M.0,.0L.0,348.6" fill="none" stroke="#191919"/>
            <path d="M3.0,348.6L.0,354.6L-3.0,348.6L3.0,348.6" stroke-width="1" fill="#191919" stroke-linecap="round" stroke="#191919"/>
            <rect width="177.0" fill="#ffffff" y="125.2" height="19.0" x="-87.5"/>
            <rect width="294.0" fill="#ffffff" y="144.2" height="19.0" x="-146.0"/>
            <text style="fill:#191919;font-family:Microsoft YaHei;font-size:10.00pt" xml:space="preserve">
                <tspan y="140.2" x="-87.5">学校通常将一个聘期设为3年，</tspan>
                <tspan y="159.2" x="-146.0">青年教师最多在2个聘期内不能晋升，则不再续聘。</tspan>
            </text>
        </g>
        <g transform="translate(600.07,1555.65)" id="shape6">
            <path d="M.0,.0L-0.0,43.7" fill="none" stroke="#191919"/>
            <path d="M3.0,43.7L-0.0,49.7L-3.0,43.7L3.0,43.7" stroke-width="1" fill="#191919" stroke-linecap="round" stroke="#191919"/>
        </g>
        <g transform="translate(496.07,1543.35)" id="shape7">
            <path d="M.0,.0L-78.1,-0.0" fill="none" stroke="#191919"/>
            <path d="M-78.1,3.0L-84.1,-0.0L-78.1,-3.0L-78.1,3.0" stroke-width="1" fill="#191919" stroke-linecap="round" stroke="#191919"/>
        </g>
        <g transform="translate(154.28,1491.57)" id="shape8">
            <text style="fill:#191919;font-family:Microsoft YaHei;font-size:10.00pt" xml:space="preserve">
                <tspan y="36.5" x="44.4">没通过考核, 则辞退, 非升即走.</tspan>
                <tspan y="55.5" x="65.9">未获得长聘副教授者，</tspan>
                <tspan y="74.5" x="7.9">可以申请缓期一年(让你找下家) 离开学校。</tspan>
            </text>
        </g>
        <g transform="translate(283.00,1092.00)" id="shape9">
            <text style="fill:#191919;font-family:Microsoft YaHei;font-size:10.00pt" xml:space="preserve">
                <tspan y="26.5" x="45.5">博士,</tspan>
                <tspan y="45.5" x="15.5">青椒(青年教师),</tspan>
                <tspan y="64.5" x="25.5">年龄&lt;35岁 </tspan>
            </text>
        </g>
        <g transform="translate(406.00,1130.00)" id="shape10">
            <path d="M.0,.0L70.3,.6" fill="none" stroke="#191919"/>
            <path d="M70.3,-2.4L76.3,.7L70.2,3.6L70.3,-2.4" stroke-width="1" fill="#191919" stroke-linecap="round" stroke="#191919"/>
        </g>
        <g transform="translate(793.86,1092.00)" id="shape11">
            <path d="M.0,.0L204.7,.0L204.7,80.0L.0,80.0L.0,.0z" fill="#fedad0" fill-rule="nonzero" stroke="#323232"/>
            <text style="fill:#191919;font-family:Microsoft YaHei;font-size:10.00pt" xml:space="preserve">
                <tspan y="36.0" x="76.4">助理教授</tspan>
                <tspan y="55.0" x="44.9">assistant professor</tspan>
            </text>
        </g>
        <g transform="translate(793.86,1605.35)" id="shape12">
            <path d="M.0,.0L204.7,.0L204.7,80.0L.0,80.0L.0,.0z" fill="#cfe9d8" fill-rule="nonzero" stroke="#323232"/>
            <text style="fill:#191919;font-family:Microsoft YaHei;font-size:10.00pt" xml:space="preserve">
                <tspan y="36.0" x="82.9">副教授</tspan>
                <tspan y="55.0" x="17.4">tenured associate professor</tspan>
            </text>
        </g>
        <g transform="translate(1020.00,1644.00)" id="shape13">
            <text style="fill:#191919;font-family:Microsoft YaHei;font-size:10.00pt" xml:space="preserve">
                <tspan y="32.5" x="4.0">美国有少数大学只有</tspan>
                <tspan y="51.5" x="4.0">教授才是长聘，而不</tspan>
                <tspan y="70.5" x="4.0">是在副教授这步</tspan>
            </text>
        </g>
        <g transform="translate(793.86,1719.35)" id="shape14">
            <path d="M.0,.0L204.7,.0L204.7,80.0L.0,80.0L.0,.0z" fill="#cfe9d8" fill-rule="nonzero" stroke="#323232"/>
            <text style="fill:#191919;font-family:Microsoft YaHei;font-size:10.00pt" xml:space="preserve">
                <tspan y="36.0" x="89.4">教授</tspan>
                <tspan y="55.0" x="73.4">professor</tspan>
            </text>
        </g>
        <g transform="translate(896.42,1685.35)" id="shape15">
            <path d="M.0,.0L.0,28.0" fill="none" stroke="#191919"/>
            <path d="M3.0,28.0L.0,34.0L-3.0,28.0L3.0,28.0" stroke-width="1" fill="#191919" stroke-linecap="round" stroke="#191919"/>
        </g>
        <g transform="translate(793.86,931.00)" id="shape16">
            <path d="M.0,.0L204.7,.0L204.7,33.0L.0,33.0L.0,.0z" fill="none" stroke="#323232"/>
            <text style="fill:#191919;font-family:Microsoft YaHei;font-size:10.00pt" xml:space="preserve">
                <tspan y="22.0" x="66.9">博士/博士后</tspan>
            </text>
        </g>
        <g transform="translate(893.56,964.00)" id="shape17">
            <path d="M.0,.0L.0,122.0" fill="none" stroke="#191919"/>
            <path d="M3.0,122.0L.0,128.0L-3.0,122.0L3.0,122.0" stroke-width="1" fill="#191919" stroke-linecap="round" stroke="#191919"/>
            <rect width="29.0" fill="#ffffff" y="18.8" height="19.0" x="-13.5"/>
            <rect width="117.0" fill="#ffffff" y="52.8" height="19.0" x="-57.5"/>
            <rect width="351.0" fill="#ffffff" y="71.8" height="19.0" x="-174.5"/>
            <rect width="247.0" fill="#ffffff" y="90.8" height="19.0" x="-122.5"/>
            <text style="fill:#191919;font-family:Microsoft YaHei;font-size:10.00pt" xml:space="preserve">
                <tspan y="33.8" x="-13.5">应聘.</tspan>
                <tspan y="67.8" x="-57.5">在院系经过招聘程序</tspan>
                <tspan y="86.8" x="-174.5">（推荐信、委员会评审、面试、学术报告、委员会投票）后，</tspan>
                <tspan y="105.8" x="-122.5">报请学校的委员会投票，再成为助理教授。</tspan>
            </text>
        </g>
        <g transform="translate(735.32,1106.50)" id="shape18">
            <path d="M.0,.0L24.0,.0L24.0,51.0L.0,51.0L.0,.0z" fill="#fedad0" fill-rule="nonzero"/>
            <text style="fill:#191919;font-family:Microsoft YaHei;font-size:20.00pt" xml:space="preserve">
                <tspan y="36.0" x="2.0">=</tspan>
            </text>
        </g>
        <g transform="translate(735.32,1616.00)" id="shape19">
            <path d="M.0,.0L24.0,.0L24.0,51.0L.0,51.0L.0,.0z" fill="#cfe9d8" fill-rule="nonzero"/>
            <text style="fill:#191919;font-family:Microsoft YaHei;font-size:20.00pt" xml:space="preserve">
                <tspan y="36.0" x="2.0">=</tspan>
            </text>
        </g>
        <g transform="translate(793.86,1247.00)" id="shape20">
            <path d="M.0,.0L204.7,.0L204.7,80.0L.0,80.0L.0,.0z" fill="#ebebeb" fill-rule="nonzero" stroke="#323232"/>
            <text style="fill:#191919;font-family:Microsoft YaHei;font-size:10.00pt" xml:space="preserve">
                <tspan y="36.0" x="71.9">第3-4年时</tspan>
                <tspan y="55.0" x="69.9">第一次评估</tspan>
            </text>
        </g>
        <g transform="translate(793.86,1432.00)" id="shape21">
            <path d="M.0,.0L204.7,.0L204.7,80.0L.0,80.0L.0,.0z" fill="#ebebeb" fill-rule="nonzero" stroke="#323232"/>
            <text style="fill:#191919;font-family:Microsoft YaHei;font-size:10.00pt" xml:space="preserve">
                <tspan y="36.0" x="71.9">第6-8年时</tspan>
                <tspan y="55.0" x="69.9">第二次评估</tspan>
            </text>
        </g>
        <g transform="translate(896.52,1172.00)" id="shape22">
            <path d="M.0,.0L.0,69.0" fill="none" stroke="#191919"/>
            <path d="M3.0,69.0L.0,75.0L-3.0,69.0L3.0,69.0" stroke-width="1" fill="#191919" stroke-linecap="round" stroke="#191919"/>
        </g>
        <g transform="translate(893.52,1327.00)" id="shape23">
            <path d="M.0,.0L.0,99.0" fill="none" stroke="#191919"/>
            <path d="M3.0,99.0L.0,105.0L-3.0,99.0L3.0,99.0" stroke-width="1" fill="#191919" stroke-linecap="round" stroke="#191919"/>
        </g>
        <g transform="translate(894.52,1512.00)" id="shape24">
            <path d="M.0,.0L.0,87.4" fill="none" stroke="#191919"/>
            <path d="M3.0,87.4L.0,93.4L-3.0,87.4L3.0,87.4" stroke-width="1" fill="#191919" stroke-linecap="round" stroke="#191919"/>
        </g>
        <g transform="translate(1020.00,1262.78)" id="shape25">
            <path d="M.0,.0L72.7,.0L72.7,48.4L.0,48.4L.0,.0z" fill="none" stroke="#323232"/>
            <text style="fill:#191919;font-family:Microsoft YaHei;font-size:10.00pt" xml:space="preserve">
                <tspan y="29.7" x="10.3">院系小组</tspan>
            </text>
        </g>
        <g transform="translate(1190.54,1262.78)" id="shape26">
            <path d="M.0,.0L82.8,.0L82.8,48.4L.0,48.4L.0,.0z" fill="none" stroke="#323232"/>
            <text style="fill:#191919;font-family:Microsoft YaHei;font-size:10.00pt" xml:space="preserve">
                <tspan y="20.2" x="24.9">校外, </tspan>
                <tspan y="39.2" x="15.4">国际同行</tspan>
            </text>
        </g>
        <g transform="translate(1092.67,1286.76)" id="shape27">
            <path d="M.0,.0L91.9,-0.0" fill="none" stroke="#191919"/>
            <path d="M91.9,-3.0L97.9,-0.0L91.9,3.0L91.9,-3.0" stroke-width="1" fill="#191919" stroke-linecap="round" stroke="#191919"/>
            <rect width="26.0" fill="#ffffff" y="-9.5" height="19.0" x="38.3"/>
            <text style="fill:#191919;font-family:Microsoft YaHei;font-size:10.00pt" xml:space="preserve">
                <tspan y="5.5" x="38.3">咨询</tspan>
            </text>
        </g>
        <g transform="translate(1229.52,1262.78)" id="shape28">
            <path stroke-dasharray="11,5" d="M.0,.0L.0,-111.3L-224.9,-111.3" fill="none" stroke="#191919"/>
            <path d="M-224.9,-108.3L-230.9,-111.3L-224.9,-114.3L-224.9,-108.3" stroke-width="1" fill="#191919" stroke-linecap="round" stroke="#191919"/>
            <rect width="91.0" fill="#ffffff" y="-120.8" height="19.0" x="-144.4"/>
            <text style="fill:#191919;font-family:Microsoft YaHei;font-size:10.00pt" xml:space="preserve">
                <tspan y="-105.8" x="-144.4">对其学术的看法</tspan>
            </text>
        </g>
        <g transform="translate(1020.00,1447.78)" id="shape29">
            <path d="M.0,.0L72.7,.0L72.7,48.4L.0,48.4L.0,.0z" fill="none" stroke="#323232"/>
            <text style="fill:#191919;font-family:Microsoft YaHei;font-size:10.00pt" xml:space="preserve">
                <tspan y="29.7" x="10.3">院系小组</tspan>
            </text>
        </g>
        <g transform="translate(1092.67,1471.76)" id="shape30">
            <path d="M.0,.0L133.9,-156.0" fill="none" stroke="#191919"/>
            <path d="M131.7,-157.9L137.8,-160.5L136.2,-154.0L131.7,-157.9" stroke-width="1" fill="#191919" stroke-linecap="round" stroke="#191919"/>
            <rect width="65.0" fill="#ffffff" y="-91.9" height="19.0" x="39.3"/>
            <text style="fill:#191919;font-family:Microsoft YaHei;font-size:10.00pt" xml:space="preserve">
                <tspan y="-76.9" x="39.3">获得评价信</tspan>
            </text>
        </g>
        <g transform="translate(1239.66,1447.78)" id="shape31">
            <path d="M.0,.0L82.8,.0L82.8,48.4L.0,48.4L.0,.0z" fill="none" stroke="#323232"/>
            <text style="fill:#191919;font-family:Microsoft YaHei;font-size:10.00pt" xml:space="preserve">
                <tspan y="20.2" x="26.9">院长,</tspan>
                <tspan y="39.2" x="8.9">学术委员会</tspan>
            </text>
        </g>
        <g transform="translate(1092.67,1471.76)" id="shape32">
            <path d="M.0,.0L141.0,-0.0" fill="none" stroke="#191919"/>
            <path d="M141.0,-3.0L147.0,-0.0L141.0,3.0L141.0,-3.0" stroke-width="1" fill="#191919" stroke-linecap="round" stroke="#191919"/>
            <rect width="81.0" fill="#ffffff" y="-28.5" height="19.0" x="39.3"/>
            <rect width="81.0" fill="#ffffff" y="-9.5" height="19.0" x="39.3"/>
            <rect width="26.0" fill="#ffffff" y="9.5" height="19.0" x="66.8"/>
            <text style="fill:#191919;font-family:Microsoft YaHei;font-size:10.00pt" xml:space="preserve">
                <tspan y="-13.5" x="39.3">将收集的资料,</tspan>
                <tspan y="5.5" x="39.3">和自己的意见,</tspan>
                <tspan y="24.5" x="66.8">提交</tspan>
            </text>
        </g>
        <g transform="translate(1455.00,1404.55)" id="shape33">
            <path d="M.0,.0L82.8,.0L82.8,48.4L.0,48.4L.0,.0z" fill="none" stroke="#323232"/>
            <text style="fill:#191919;font-family:Microsoft YaHei;font-size:10.00pt" xml:space="preserve">
                <tspan y="30.0" x="28.4">学部</tspan>
            </text>
        </g>
        <g transform="translate(1322.43,1472.53)" id="shape34">
            <path d="M.0,.0L118.6,.0L118.6,-43.2L126.6,-43.2" fill="none" stroke="#191919"/>
            <path d="M126.6,-46.2L132.6,-43.2L126.6,-40.2L126.6,-46.2" stroke-width="1" fill="#191919" stroke-linecap="round" stroke="#191919"/>
        </g>
        <g transform="translate(1316.00,1432.00)" id="shape35">
            <text style="fill:#191919;font-family:Microsoft YaHei;font-size:10.00pt" xml:space="preserve">
                <tspan y="36.0" x="26.0">写评价报告,</tspan>
                <tspan y="55.0" x="47.0">上交</tspan>
            </text>
        </g>
        <g transform="translate(1455.00,1491.00)" id="shape36">
            <path d="M.0,.0L82.8,.0L82.8,48.4L.0,48.4L.0,.0z" fill="#ebebeb" fill-rule="nonzero" stroke="#323232"/>
            <text style="fill:#191919;font-family:Microsoft YaHei;font-size:10.00pt" xml:space="preserve">
                <tspan y="20.5" x="21.9">学校的</tspan>
                <tspan y="39.5" x="8.9">评审委员会</tspan>
            </text>
        </g>
        <g transform="translate(1322.43,1472.53)" id="shape37">
            <path d="M.0,.0L118.6,.0L118.6,37.0L126.6,37.0" fill="none" stroke="#191919"/>
            <path d="M126.6,34.0L132.6,37.0L126.6,40.0L126.6,34.0" stroke-width="1" fill="#191919" stroke-linecap="round" stroke="#191919"/>
        </g>
        <g transform="translate(1556.77,1491.00)" id="shape38">
            <text style="fill:#191919;font-family:Microsoft YaHei;font-size:10.00pt" xml:space="preserve">
                <tspan y="20.2" x="4.2">北大是三个人才委员会: </tspan>
                <tspan y="39.2" x="4.2">理工科、人文社科, 医学</tspan>
            </text>
        </g>
        <g transform="translate(1239.66,1616.00)" id="shape39">
            <path stroke-dasharray="6,4" d="M.0,.0L82.8,.0L82.8,48.4L.0,48.4L.0,.0z" fill="none" stroke="#323232"/>
            <text style="fill:#191919;font-family:Microsoft YaHei;font-size:10.00pt" xml:space="preserve">
                <tspan y="30.0" x="8.9">无记名投票</tspan>
            </text>
        </g>
        <g transform="translate(1498.53,1539.45)" id="shape40">
            <path d="M.0,.0L.0,99.1L-170.1,99.1" fill="none" stroke="#191919"/>
            <path d="M-170.1,102.1L-176.1,99.1L-170.1,96.1L-170.1,102.1" stroke-width="1" fill="#191919" stroke-linecap="round" stroke="#191919"/>
        </g>
        <g transform="translate(1239.66,1637.56)" id="shape41">
            <path d="M.0,.0L-209.1,.0L-209.1,.0L-235.1,.0" fill="none" stroke="#191919"/>
            <path d="M-235.1,3.0L-241.1,.0L-235.1,-3.0L-235.1,3.0" stroke-width="1" fill="#191919" stroke-linecap="round" stroke="#191919"/>
        </g>
        <g transform="translate(1508.51,1568.00)" id="shape42">
            <text style="fill:#191919;font-family:Microsoft YaHei;font-size:10.00pt" xml:space="preserve">
                <tspan y="23.0" x="4.2">根据材料</tspan>
                <tspan y="42.0" x="4.2">- 候选人履历</tspan>
                <tspan y="61.0" x="4.2">- 代表性学术工作</tspan>
                <tspan y="80.0" x="4.2">- 评审信</tspan>
                <tspan y="99.0" x="4.2">- 院系学术委员会意见</tspan>
                <tspan y="118.0" x="4.2">- 院长独立意见</tspan>
                <tspan y="137.0" x="4.2">- 教学评价</tspan>
                <tspan y="156.0" x="4.2">- 师德师风报告等等</tspan>
            </text>
        </g>
    </g>
</svg>
